<?xml version="1.0" encoding="UTF-8" standalone="no"?>
<!DOCTYPE svg PUBLIC "-//W3C//DTD SVG 20010904//EN"
              "http://www.w3.org/TR/2001/REC-SVG-20010904/DTD/svg10.dtd">

<svg xmlns="http://www.w3.org/2000/svg"
     width="211.64mm" height="211.64mm"
     viewBox="0 0 600 600">
  <path id="Selection"
        fill="none" stroke="black" stroke-width="1"
        d="M 96.00,69.00
           C 118.05,65.03 140.67,65.97 163.00,66.00
             180.40,66.03 210.61,71.04 228.00,74.79
             343.40,99.68 438.78,175.35 492.74,280.00
             511.03,315.46 524.63,359.48 530.13,399.00
             530.13,399.00 533.09,427.00 533.09,427.00
             533.09,427.00 534.00,439.00 534.00,439.00
             534.00,439.00 534.00,475.00 534.00,475.00
             533.90,482.92 532.42,496.11 531.00,504.00
             531.00,504.00 442.00,504.00 442.00,504.00
             442.00,504.00 446.00,465.00 446.00,465.00
             446.04,440.17 444.62,417.39 439.34,393.00
             415.21,281.61 330.22,192.81 220.00,163.73
             202.19,159.04 171.24,154.03 153.00,154.00
             153.00,154.00 136.00,154.00 136.00,154.00
             136.00,154.00 115.00,155.28 115.00,155.28
             115.00,155.28 96.00,158.00 96.00,158.00
             96.00,158.00 96.00,69.00 96.00,69.00 Z
           M 96.00,320.00
           C 96.00,320.00 96.00,251.00 96.00,251.00
             96.00,249.03 95.74,245.31 96.99,243.73
             98.51,241.83 103.65,241.31 106.00,240.92
             113.76,239.63 125.28,238.01 133.00,238.00
             154.32,237.97 167.65,237.69 189.00,242.21
             247.81,254.66 295.95,288.66 328.66,339.00
             346.77,366.87 361.95,410.55 362.00,444.00
             362.00,444.00 362.00,470.00 362.00,470.00
             362.00,470.00 359.25,494.00 359.25,494.00
             358.84,496.46 358.32,501.42 356.28,503.01
             354.67,504.26 350.99,504.00 349.00,504.00
             349.00,504.00 280.00,504.00 280.00,504.00
             284.58,490.25 285.78,483.29 287.17,469.00
             287.67,463.78 288.12,462.71 287.99,457.00
             287.99,457.00 287.17,449.00 287.17,449.00
             286.45,441.56 285.80,434.33 284.11,427.00
             272.36,375.98 234.04,334.54 184.00,319.02
             165.95,313.43 143.74,310.98 125.00,313.29
             112.61,314.81 107.01,317.49 96.00,320.00 Z
           M 135.00,408.23
           C 138.63,407.96 141.37,407.99 145.00,408.23
             152.15,408.01 156.30,408.72 163.00,411.45
             200.21,426.61 202.08,479.86 167.00,498.68
             158.74,503.11 151.19,504.10 142.00,504.00
             107.11,503.59 85.92,465.77 100.32,435.00
             107.21,420.30 119.48,411.91 135.00,408.23 Z" />
</svg>
